<mxfile host="app.diagrams.net" modified="2023-11-28T12:14:29.918Z" agent="Mozilla/5.0 (Windows NT 10.0; Win64; x64) AppleWebKit/537.36 (KHTML, like Gecko) Chrome/119.0.0.0 Safari/537.36" etag="W-u5xHkfXCS-cqLE3Xx8" version="22.1.4" type="device">
  <diagram id="C5RBs43oDa-KdzZeNtuy" name="Page-1">
    <mxGraphModel dx="792" dy="1104" grid="1" gridSize="10" guides="1" tooltips="1" connect="1" arrows="1" fold="1" page="1" pageScale="1" pageWidth="827" pageHeight="1169" math="0" shadow="0">
      <root>
        <mxCell id="WIyWlLk6GJQsqaUBKTNV-0" />
        <mxCell id="WIyWlLk6GJQsqaUBKTNV-1" parent="WIyWlLk6GJQsqaUBKTNV-0" />
        <mxCell id="rKDQyNeDcb0LPpNlD-io-2" style="edgeStyle=orthogonalEdgeStyle;rounded=0;orthogonalLoop=1;jettySize=auto;html=1;exitX=0.5;exitY=1;exitDx=0;exitDy=0;entryX=0.5;entryY=0;entryDx=0;entryDy=0;" edge="1" parent="WIyWlLk6GJQsqaUBKTNV-1" source="WIyWlLk6GJQsqaUBKTNV-3" target="rKDQyNeDcb0LPpNlD-io-0">
          <mxGeometry relative="1" as="geometry" />
        </mxCell>
        <mxCell id="WIyWlLk6GJQsqaUBKTNV-3" value="행맨 프로그램 기동" style="rounded=1;whiteSpace=wrap;html=1;fontSize=12;glass=0;strokeWidth=1;shadow=0;" parent="WIyWlLk6GJQsqaUBKTNV-1" vertex="1">
          <mxGeometry x="160" y="80" width="190" height="40" as="geometry" />
        </mxCell>
        <mxCell id="rKDQyNeDcb0LPpNlD-io-4" style="edgeStyle=orthogonalEdgeStyle;rounded=0;orthogonalLoop=1;jettySize=auto;html=1;exitX=0.5;exitY=1;exitDx=0;exitDy=0;" edge="1" parent="WIyWlLk6GJQsqaUBKTNV-1" source="rKDQyNeDcb0LPpNlD-io-0">
          <mxGeometry relative="1" as="geometry">
            <mxPoint x="255" y="290" as="targetPoint" />
          </mxGeometry>
        </mxCell>
        <mxCell id="rKDQyNeDcb0LPpNlD-io-0" value="임의의 랜덤 값 가져오고&lt;br&gt;사용자에게 출력 (언더바 형식)" style="rounded=1;whiteSpace=wrap;html=1;" vertex="1" parent="WIyWlLk6GJQsqaUBKTNV-1">
          <mxGeometry x="160" y="170" width="190" height="60" as="geometry" />
        </mxCell>
        <mxCell id="rKDQyNeDcb0LPpNlD-io-10" style="edgeStyle=orthogonalEdgeStyle;rounded=0;orthogonalLoop=1;jettySize=auto;html=1;exitX=0.5;exitY=1;exitDx=0;exitDy=0;entryX=0.5;entryY=0;entryDx=0;entryDy=0;" edge="1" parent="WIyWlLk6GJQsqaUBKTNV-1" source="rKDQyNeDcb0LPpNlD-io-5" target="rKDQyNeDcb0LPpNlD-io-7">
          <mxGeometry relative="1" as="geometry" />
        </mxCell>
        <mxCell id="rKDQyNeDcb0LPpNlD-io-12" style="edgeStyle=orthogonalEdgeStyle;rounded=0;orthogonalLoop=1;jettySize=auto;html=1;exitX=0.5;exitY=1;exitDx=0;exitDy=0;" edge="1" parent="WIyWlLk6GJQsqaUBKTNV-1" source="rKDQyNeDcb0LPpNlD-io-5" target="rKDQyNeDcb0LPpNlD-io-8">
          <mxGeometry relative="1" as="geometry" />
        </mxCell>
        <mxCell id="rKDQyNeDcb0LPpNlD-io-5" value="최소 카운트를 지정해놓고&lt;br&gt;사용자에게 문자 입력 요구" style="rounded=1;whiteSpace=wrap;html=1;" vertex="1" parent="WIyWlLk6GJQsqaUBKTNV-1">
          <mxGeometry x="160" y="290" width="190" height="60" as="geometry" />
        </mxCell>
        <mxCell id="rKDQyNeDcb0LPpNlD-io-14" style="edgeStyle=orthogonalEdgeStyle;rounded=0;orthogonalLoop=1;jettySize=auto;html=1;exitX=0.5;exitY=1;exitDx=0;exitDy=0;" edge="1" parent="WIyWlLk6GJQsqaUBKTNV-1" source="rKDQyNeDcb0LPpNlD-io-7">
          <mxGeometry relative="1" as="geometry">
            <mxPoint x="170" y="530" as="targetPoint" />
          </mxGeometry>
        </mxCell>
        <mxCell id="rKDQyNeDcb0LPpNlD-io-7" value="문자열에 문자가 있음&lt;br&gt;언더바에 문자 추가" style="rounded=0;whiteSpace=wrap;html=1;" vertex="1" parent="WIyWlLk6GJQsqaUBKTNV-1">
          <mxGeometry x="110" y="410" width="120" height="60" as="geometry" />
        </mxCell>
        <mxCell id="rKDQyNeDcb0LPpNlD-io-29" style="edgeStyle=orthogonalEdgeStyle;rounded=0;orthogonalLoop=1;jettySize=auto;html=1;exitX=0.5;exitY=1;exitDx=0;exitDy=0;entryX=0.5;entryY=0;entryDx=0;entryDy=0;" edge="1" parent="WIyWlLk6GJQsqaUBKTNV-1" source="rKDQyNeDcb0LPpNlD-io-8" target="rKDQyNeDcb0LPpNlD-io-17">
          <mxGeometry relative="1" as="geometry" />
        </mxCell>
        <mxCell id="rKDQyNeDcb0LPpNlD-io-8" value="문자열에 문자가 없음&lt;br&gt;행맨 카운트 그림 추가" style="rounded=0;whiteSpace=wrap;html=1;" vertex="1" parent="WIyWlLk6GJQsqaUBKTNV-1">
          <mxGeometry x="294" y="410" width="120" height="60" as="geometry" />
        </mxCell>
        <mxCell id="rKDQyNeDcb0LPpNlD-io-15" value="모든 문자열을 채움" style="rounded=0;whiteSpace=wrap;html=1;" vertex="1" parent="WIyWlLk6GJQsqaUBKTNV-1">
          <mxGeometry x="110" y="530" width="120" height="60" as="geometry" />
        </mxCell>
        <mxCell id="rKDQyNeDcb0LPpNlD-io-17" value="카운트 감소 후&lt;br&gt;카운트가 0일시" style="rounded=0;whiteSpace=wrap;html=1;" vertex="1" parent="WIyWlLk6GJQsqaUBKTNV-1">
          <mxGeometry x="294" y="530" width="120" height="60" as="geometry" />
        </mxCell>
        <mxCell id="rKDQyNeDcb0LPpNlD-io-18" value="" style="endArrow=classic;html=1;rounded=0;entryX=1;entryY=0.5;entryDx=0;entryDy=0;" edge="1" parent="WIyWlLk6GJQsqaUBKTNV-1" target="rKDQyNeDcb0LPpNlD-io-5">
          <mxGeometry relative="1" as="geometry">
            <mxPoint x="414" y="559.5" as="sourcePoint" />
            <mxPoint x="480" y="560" as="targetPoint" />
            <Array as="points">
              <mxPoint x="440" y="560" />
              <mxPoint x="440" y="320" />
            </Array>
          </mxGeometry>
        </mxCell>
        <mxCell id="rKDQyNeDcb0LPpNlD-io-19" value="No" style="edgeLabel;resizable=0;html=1;align=center;verticalAlign=middle;" connectable="0" vertex="1" parent="rKDQyNeDcb0LPpNlD-io-18">
          <mxGeometry relative="1" as="geometry" />
        </mxCell>
        <mxCell id="rKDQyNeDcb0LPpNlD-io-33" value="게임 종료(성공)" style="rounded=0;whiteSpace=wrap;html=1;" vertex="1" parent="WIyWlLk6GJQsqaUBKTNV-1">
          <mxGeometry x="110" y="650" width="120" height="60" as="geometry" />
        </mxCell>
        <mxCell id="rKDQyNeDcb0LPpNlD-io-41" value="" style="endArrow=classic;html=1;rounded=0;exitX=0.442;exitY=1.05;exitDx=0;exitDy=0;exitPerimeter=0;" edge="1" parent="WIyWlLk6GJQsqaUBKTNV-1">
          <mxGeometry relative="1" as="geometry">
            <mxPoint x="170.01999999999995" y="590" as="sourcePoint" />
            <mxPoint x="170" y="650" as="targetPoint" />
          </mxGeometry>
        </mxCell>
        <mxCell id="rKDQyNeDcb0LPpNlD-io-42" value="Yes" style="edgeLabel;resizable=0;html=1;align=center;verticalAlign=middle;" connectable="0" vertex="1" parent="rKDQyNeDcb0LPpNlD-io-41">
          <mxGeometry relative="1" as="geometry" />
        </mxCell>
        <mxCell id="rKDQyNeDcb0LPpNlD-io-44" value="" style="endArrow=classic;html=1;rounded=0;exitX=0;exitY=0.5;exitDx=0;exitDy=0;entryX=0;entryY=0.5;entryDx=0;entryDy=0;" edge="1" parent="WIyWlLk6GJQsqaUBKTNV-1" source="rKDQyNeDcb0LPpNlD-io-15" target="rKDQyNeDcb0LPpNlD-io-5">
          <mxGeometry relative="1" as="geometry">
            <mxPoint x="70" y="510" as="sourcePoint" />
            <mxPoint x="170" y="510" as="targetPoint" />
            <Array as="points">
              <mxPoint x="80" y="560" />
              <mxPoint x="80" y="320" />
            </Array>
          </mxGeometry>
        </mxCell>
        <mxCell id="rKDQyNeDcb0LPpNlD-io-45" value="No" style="edgeLabel;resizable=0;html=1;align=center;verticalAlign=middle;" connectable="0" vertex="1" parent="rKDQyNeDcb0LPpNlD-io-44">
          <mxGeometry relative="1" as="geometry" />
        </mxCell>
        <mxCell id="rKDQyNeDcb0LPpNlD-io-46" value="게임 종료(실패)" style="rounded=0;whiteSpace=wrap;html=1;" vertex="1" parent="WIyWlLk6GJQsqaUBKTNV-1">
          <mxGeometry x="294" y="650" width="120" height="60" as="geometry" />
        </mxCell>
        <mxCell id="rKDQyNeDcb0LPpNlD-io-47" value="" style="endArrow=classic;html=1;rounded=0;exitX=0.442;exitY=1.05;exitDx=0;exitDy=0;exitPerimeter=0;" edge="1" parent="WIyWlLk6GJQsqaUBKTNV-1">
          <mxGeometry relative="1" as="geometry">
            <mxPoint x="354.02" y="590" as="sourcePoint" />
            <mxPoint x="354" y="650" as="targetPoint" />
          </mxGeometry>
        </mxCell>
        <mxCell id="rKDQyNeDcb0LPpNlD-io-48" value="Yes" style="edgeLabel;resizable=0;html=1;align=center;verticalAlign=middle;" connectable="0" vertex="1" parent="rKDQyNeDcb0LPpNlD-io-47">
          <mxGeometry relative="1" as="geometry" />
        </mxCell>
      </root>
    </mxGraphModel>
  </diagram>
</mxfile>
